<svg width="31" height="26" viewBox="0 0 31 26" fill="none" xmlns="http://www.w3.org/2000/svg">
<path fill-rule="evenodd" clip-rule="evenodd" d="M4.15314 11.6411L14.1968 1.69846C14.5893 1.30991 14.5893 0.679955 14.1968 0.291409C13.8043 -0.0971366 13.168 -0.0971362 12.7755 0.291409L1.29071 11.6607C1.05929 11.8898 0.964316 12.2028 1.00579 12.5008C0.964316 12.7988 1.05929 13.1118 1.29071 13.3409L12.7755 24.7101C13.168 25.0987 13.8043 25.0987 14.1968 24.7101C14.5893 24.3216 14.5893 23.6916 14.1968 23.3031L4.43672 13.6411H30C30.5522 13.6411 31 13.1934 31 12.6411C31 12.0889 30.5522 11.6411 30 11.6411H4.15314Z" fill="#426671"/>
</svg>
